<svg preserveAspectRatio="none" width="100%" height="100%" overflow="visible" style="display: block;" viewBox="0 0 23 23" fill="none" xmlns="http://www.w3.org/2000/svg">
<path id="close" d="M21.5349 1.48107C21.3875 1.33341 21.2125 1.21626 21.0198 1.13633C20.8271 1.0564 20.6205 1.01525 20.4119 1.01525C20.2033 1.01525 19.9967 1.0564 19.804 1.13633C19.6114 1.21626 19.4363 1.33341 19.289 1.48107L11.5 9.2541L3.71104 1.46514C3.56357 1.31767 3.3885 1.20069 3.19582 1.12089C3.00315 1.04108 2.79664 1 2.58809 1C2.37954 1 2.17303 1.04108 1.98035 1.12089C1.78768 1.20069 1.61261 1.31767 1.46514 1.46514C1.31767 1.61261 1.20069 1.78768 1.12089 1.98035C1.04108 2.17303 1 2.37954 1 2.58809C1 2.79664 1.04108 3.00315 1.12089 3.19582C1.20069 3.3885 1.31767 3.56357 1.46514 3.71104L9.2541 11.5L1.46514 19.289C1.31767 19.4364 1.20069 19.6115 1.12089 19.8042C1.04108 19.9969 1 20.2034 1 20.4119C1 20.6205 1.04108 20.827 1.12089 21.0196C1.20069 21.2123 1.31767 21.3874 1.46514 21.5349C1.61261 21.6823 1.78768 21.7993 1.98035 21.8791C2.17303 21.9589 2.37954 22 2.58809 22C2.79664 22 3.00315 21.9589 3.19582 21.8791C3.3885 21.7993 3.56357 21.6823 3.71104 21.5349L11.5 13.7459L19.289 21.5349C19.4364 21.6823 19.6115 21.7993 19.8042 21.8791C19.9969 21.9589 20.2034 22 20.4119 22C20.6205 22 20.827 21.9589 21.0196 21.8791C21.2123 21.7993 21.3874 21.6823 21.5349 21.5349C21.6823 21.3874 21.7993 21.2123 21.8791 21.0196C21.9589 20.827 22 20.6205 22 20.4119C22 20.2034 21.9589 19.9969 21.8791 19.8042C21.7993 19.6115 21.6823 19.4364 21.5349 19.289L13.7459 11.5L21.5349 3.71104C22.1401 3.10576 22.1401 2.08635 21.5349 1.48107V1.48107Z" fill="var(--fill-0, #A3A3A3)" stroke="var(--stroke-0, white)" stroke-width="0.5" stroke-linejoin="round"/>
</svg>
