<svg width="57" height="29" viewBox="0 0 57 29" fill="none" xmlns="http://www.w3.org/2000/svg">
<path d="M40.3532 0.713947C40.5777 0.487721 40.8447 0.308162 41.1389 0.185625C41.4331 0.0630885 41.7487 0 42.0674 0C42.3862 0 42.7018 0.0630885 42.996 0.185625C43.2902 0.308162 43.5572 0.487721 43.7817 0.713947L55.8537 12.7821C56.08 13.0065 56.2596 13.2734 56.3822 13.5675C56.5048 13.8617 56.5679 14.1771 56.5679 14.4958C56.5679 14.8144 56.5048 15.1299 56.3822 15.424C56.2596 15.7181 56.08 15.9851 55.8537 16.2094L43.7817 28.2776C43.5572 28.5038 43.2902 28.6833 42.996 28.8059C42.7018 28.9284 42.3862 28.9915 42.0674 28.9915C41.7487 28.9915 41.4331 28.9284 41.1389 28.8059C40.8447 28.6833 40.5777 28.5038 40.3532 28.2776C40.1269 28.0532 39.9473 27.7862 39.8247 27.4921C39.7022 27.198 39.639 26.8825 39.639 26.5639C39.639 26.2453 39.7022 25.9298 39.8247 25.6357C39.9473 25.3415 40.1269 25.0746 40.3532 24.8502L50.7352 14.4958L40.3532 4.1413C40.1269 3.91692 39.9473 3.64997 39.8247 3.35585C39.7022 3.06172 39.639 2.74625 39.639 2.42762C39.639 2.10899 39.7022 1.79352 39.8247 1.4994C39.9473 1.20527 40.1269 0.938325 40.3532 0.713947ZM0.714191 12.7821L12.7862 0.713947C13.0113 0.488904 13.2786 0.31039 13.5727 0.188598C13.8668 0.0668056 14.1821 0.0041191 14.5004 0.0041191C15.1434 0.0041191 15.76 0.259452 16.2147 0.713947C16.4398 0.93899 16.6183 1.20615 16.7402 1.50019C16.862 1.79422 16.9247 2.10936 16.9247 2.42762C16.9247 3.07037 16.6693 3.6868 16.2147 4.1413L5.83273 14.4958L16.2147 24.8502C16.441 25.0746 16.6206 25.3415 16.7432 25.6357C16.8657 25.9298 16.9288 26.2453 16.9288 26.5639C16.9288 26.8825 16.8657 27.198 16.7432 27.4921C16.6206 27.7862 16.441 28.0532 16.2147 28.2776C15.9902 28.5038 15.7232 28.6833 15.429 28.8059C15.1347 28.9284 14.8192 28.9915 14.5004 28.9915C14.1817 28.9915 13.8661 28.9284 13.5719 28.8059C13.2777 28.6833 13.0107 28.5038 12.7862 28.2776L0.714191 16.2094C0.487896 15.9851 0.30827 15.7181 0.185692 15.424C0.063118 15.1299 1.52588e-05 14.8144 1.52588e-05 14.4958C1.52588e-05 14.1771 0.063118 13.8617 0.185692 13.5675C0.30827 13.2734 0.487896 13.0065 0.714191 12.7821Z" fill="black"/>
</svg>
