<svg width="22" height="22" viewBox="0 0 22 22" fill="none" xmlns="http://www.w3.org/2000/svg">
<path d="M6.6 17.6C5.995 17.6 5.47727 17.3848 5.0468 16.9543C4.61633 16.5238 4.40073 16.0057 4.4 15.4V2.2C4.4 1.595 4.6156 1.07727 5.0468 0.6468C5.478 0.216333 5.99573 0.000733333 6.6 0H19.8C20.405 0 20.9231 0.2156 21.3543 0.6468C21.7855 1.078 22.0007 1.59573 22 2.2V15.4C22 16.005 21.7848 16.5231 21.3543 16.9543C20.9238 17.3855 20.4057 17.6007 19.8 17.6H6.6ZM2.2 22C1.595 22 1.07727 21.7848 0.6468 21.3543C0.216333 20.9238 0.000733333 20.4057 0 19.8V5.5C0 5.18833 0.1056 4.92726 0.3168 4.7168C0.528 4.50633 0.789067 4.40073 1.1 4.4C1.41093 4.39926 1.67237 4.50486 1.8843 4.7168C2.09623 4.92873 2.20147 5.1898 2.2 5.5V19.8H16.5C16.8117 19.8 17.0731 19.9056 17.2843 20.1168C17.4955 20.328 17.6007 20.5891 17.6 20.9C17.5993 21.2109 17.4937 21.4724 17.2832 21.6843C17.0727 21.8962 16.8117 22.0015 16.5 22H2.2ZM12.1 8.93749C12.1 9.15749 12.1917 9.31809 12.375 9.41929C12.5583 9.52049 12.7417 9.51573 12.925 9.40499L14.2725 8.58C14.4558 8.46999 14.6483 8.41499 14.85 8.41499C15.0517 8.41499 15.2442 8.46999 15.4275 8.58L16.775 9.40499C16.9583 9.51499 17.1417 9.51976 17.325 9.41929C17.5083 9.31883 17.6 9.15823 17.6 8.93749V2.2H12.1V8.93749Z" fill="#AFAFAF"/>
</svg>
