<svg width="21" height="22" viewBox="0 0 21 22" fill="none" xmlns="http://www.w3.org/2000/svg">
<path d="M0 20.57V8.14079C0 7.77471 0.0819845 7.42819 0.245954 7.1012C0.409923 6.77422 0.635857 6.50491 0.923757 6.29327L8.62411 0.461879C9.02736 0.15396 9.48781 0 10.0055 0C10.5231 0 10.9864 0.15396 11.3954 0.461879L19.0957 6.29184C19.3846 6.50348 19.6105 6.77326 19.7735 7.1012C19.9375 7.42819 20.0195 7.77471 20.0195 8.14079V20.57C20.0195 20.9533 19.877 21.2874 19.5919 21.5724C19.3069 21.8575 18.9728 22 18.5895 22H13.7505C13.4226 22 13.148 21.8894 12.9269 21.6682C12.7057 21.4461 12.5951 21.1716 12.5951 20.8446V14.0251C12.5951 13.6981 12.4845 13.424 12.2634 13.2029C12.0413 12.9807 11.7667 12.8697 11.4397 12.8697H8.57978C8.2528 12.8697 7.97872 12.9807 7.75756 13.2029C7.53543 13.424 7.42437 13.6981 7.42437 14.0251V20.846C7.42437 21.173 7.31379 21.4471 7.09262 21.6682C6.87145 21.8894 6.59738 22 6.27039 22H1.42996C1.04673 22 0.712598 21.8575 0.427559 21.5724C0.142519 21.2874 0 20.9533 0 20.57Z" fill="#AFAFAF"/>
</svg>
