<svg width="23" height="23" viewBox="0 0 23 23" fill="none" xmlns="http://www.w3.org/2000/svg">
<path d="M8.17917 7.81883C8.57019 7.47723 9.03481 7.21384 9.54774 7.05856L9.8318 6.9838L10.0158 6.9493L10.2182 6.92054L10.4252 6.90329L10.6368 6.89754H19.2623C20.2168 6.89746 21.1352 7.26261 21.8291 7.9181C22.523 8.57359 22.9399 9.46976 22.9943 10.4228L23 10.6356V19.2619C23.0001 20.2167 22.6348 21.1354 21.9791 21.8294C21.3235 22.5234 20.4271 22.9402 19.4739 22.9942L19.2623 23H10.6368C9.68214 23.0001 8.7636 22.6348 8.06965 21.979C7.3757 21.3233 6.95895 20.4268 6.9049 19.4736L6.89915 19.2631V10.6368L6.9026 10.4654L6.9187 10.2469L6.9486 10.0272L6.99001 9.81324L7.05786 9.55675L7.14986 9.28531L7.24992 9.05297L7.34422 8.86664L7.45233 8.67916L7.62024 8.42957L7.72834 8.2881L7.8836 8.10868L8.00781 7.97986L8.17917 7.81883ZM14.9496 10.3492C14.7411 10.3492 14.5398 10.4247 14.3827 10.5617C14.2256 10.6987 14.1234 10.888 14.0951 11.0945L14.087 11.2118V14.0861H11.2119C11.0034 14.0861 10.8021 14.1616 10.645 14.2987C10.4879 14.4357 10.3857 14.6249 10.3574 14.8315L10.3493 14.9488C10.3493 15.3858 10.6736 15.7458 11.0946 15.8034L11.2119 15.8114H14.087V18.688C14.087 19.1251 14.4113 19.4862 14.8323 19.5426L14.9496 19.5506C15.158 19.5506 15.3594 19.4751 15.5165 19.3381C15.6736 19.2011 15.7757 19.0118 15.8041 18.8053L15.8121 18.688V15.8114H18.6873C18.8959 15.8114 19.0974 15.7357 19.2545 15.5985C19.4116 15.4612 19.5137 15.2717 19.5418 15.0649L19.5498 14.9499C19.5498 14.7415 19.4743 14.5401 19.3373 14.383C19.2003 14.2259 19.0111 14.1237 18.8046 14.0953L18.6873 14.0873H15.8121V11.2118C15.8121 11.0034 15.7366 10.802 15.5996 10.6449C15.4626 10.4878 15.2734 10.3856 15.0669 10.3573L14.9496 10.3492ZM15.6189 2.56598L15.6787 2.76956L16.4769 5.74621H10.6368C9.99488 5.74621 9.3592 5.87269 8.76612 6.11842C8.17303 6.36415 7.63416 6.72432 7.18027 7.17836C6.72639 7.63239 6.36638 8.1714 6.12082 8.76461C5.87525 9.35781 5.74894 9.99358 5.74909 10.6356V18.0358C5.00126 17.9916 4.28398 17.7236 3.6903 17.2667C3.09662 16.8097 2.65393 16.1849 2.41966 15.4733L2.35986 15.2708L0.127593 6.9378C-0.119666 6.01579 -0.00485248 5.0341 0.448492 4.19405C0.901836 3.354 1.65936 2.71923 2.56572 2.41991L2.77043 2.3601L11.1015 0.127606C12.0234 -0.119678 13.005 -0.00485296 13.8449 0.448537C14.6849 0.901927 15.3196 1.65952 15.6189 2.56598Z" fill="#AFAFAF"/>
</svg>
